<svg xmlns="http://www.w3.org/2000/svg" xml:space="preserve" style="enable-background:new 0 0 128 128" viewBox="0 0 128 128"><path d="M64 27.1c.3 0 26.7 0 44.1 1.3l.8.1c2.3.2 4.8.5 7.3 3 1.2 1.2 2.5 5.3 2.9 8.2.7 6.5 1.1 12.9 1.2 19.4v9.6c0 6.5-.4 13-1.2 19.5-.4 2.9-1.8 7.1-2.9 8.1-2.5 2.5-5 2.8-7.3 3l-.8.1c-17.1 1.2-42.9 1.3-44.1 1.3-1.3 0-32.6-.3-42.6-1.2-.6-.1-1.2-.2-1.8-.2-2.7-.3-5.7-.7-7.8-2.9-1.2-1.2-2.5-5.3-2.9-8.2-.7-6.5-1.1-12.9-1.2-19.4v-9.5c0-6.5.4-13 1.2-19.4.5-3 1.8-7.1 2.9-8.2 2.5-2.5 5-2.8 7.3-3l.8-.1c17.4-1.4 43.8-1.4 44.1-1.5m0-7.5s-26.9 0-44.8 1.3c-2.5.3-7.9.3-12.8 5.3C2.6 30 1.3 38.8 1.3 38.8.5 45.6.1 52.4 0 59.2v9.6c.1 6.8.5 13.7 1.3 20.5 0 0 1.2 8.7 5.1 12.5 4.9 5 11.3 4.9 14.1 5.4 10.2 1 43.5 1.3 43.5 1.3s26.9 0 44.8-1.3c2.5-.3 8-.3 12.8-5.4 3.8-3.8 5.1-12.5 5.1-12.5.8-6.8 1.2-13.6 1.3-20.5v-9.6c-.1-6.8-.5-13.7-1.3-20.5 0 0-1.2-8.7-5.1-12.6-4.9-5-10.3-5.1-12.8-5.3C90.9 19.5 64 19.5 64 19.6z"/><path d="M52.5 44.9V83l32.6-19-32.6-19.1z"/></svg>